<svg data-v-423bf9ae="" xmlns="http://www.w3.org/2000/svg" viewBox="0 0 552 95" class="iconLeft"><!----><!----><!----><g data-v-423bf9ae="" id="92a73a78-3175-46a0-971c-27cd4f33d17c" fill="#ffffff" transform="matrix(5.55555594801415,0,0,5.55555594801415,105.10823476069211,18.03461172440906)"><path d="M5.83 1.17L1.46 1.17L1.46 4.52L5.10 4.52L5.10 5.69L1.46 5.69L1.46 9.33L5.83 9.33L5.83 10.50L0 10.50L0 0L5.83 0L5.83 1.17ZM7 5.83L12.83 5.83L12.83 4.67L7 4.67L7 5.83ZM21 8.75L21 7.29L19.54 7.29L19.54 8.46L19.54 8.46Q19.54 9.48 17.50 9.48L17.50 9.48L17.50 9.48Q15.46 9.48 15.46 8.46L15.46 8.46L15.46 2.04L15.46 2.04Q15.46 1.02 17.50 1.02L17.50 1.02L17.50 1.02Q19.54 1.02 19.54 2.04L19.54 2.04L19.54 3.21L21 3.21L21 1.75L21 1.75Q21-0.15 17.50-0.15L17.50-0.15L17.50-0.15Q14-0.15 14 1.75L14 1.75L14 8.75L14 8.75Q14 10.65 17.50 10.65L17.50 10.65L17.50 10.65Q21 10.65 21 8.75L21 8.75ZM27.13 4.96L27.13 8.46L27.13 8.46Q27.13 9.48 25.38 9.48L25.38 9.48L25.38 9.48Q23.63 9.48 23.63 8.46L23.63 8.46L23.63 4.96L23.63 4.96Q23.63 3.94 25.38 3.94L25.38 3.94L25.38 3.94Q27.13 3.94 27.13 4.96L27.13 4.96ZM28.58 8.75L28.58 4.67L28.58 4.67Q28.58 2.77 25.38 2.77L25.38 2.77L25.38 2.77Q22.17 2.77 22.17 4.67L22.17 4.67L22.17 8.75L22.17 8.75Q22.17 10.65 25.38 10.65L25.38 10.65L25.38 10.65Q28.58 10.65 28.58 8.75L28.58 8.75ZM29.75 2.92L29.75 10.50L31.21 10.50L31.21 4.96L31.21 4.96Q31.21 3.94 32.61 3.94L32.61 3.94L32.61 3.94Q34.01 3.94 34.01 4.96L34.01 4.96L34.01 10.50L35.47 10.50L35.47 4.96L35.47 4.96Q35.47 3.94 36.87 3.94L36.87 3.94L36.87 3.94Q38.27 3.94 38.27 4.96L38.27 4.96L38.27 10.50L39.73 10.50L39.73 4.67L39.73 4.67Q39.73 2.77 37.73 2.77L37.73 2.77L37.73 2.77Q35.73 2.77 35.32 3.70L35.32 3.70L35.32 3.70Q35 2.77 33.10 2.77L33.10 2.77L33.10 2.77Q31.21 2.77 31.21 3.94L31.21 3.94L31.21 2.92L29.75 2.92ZM40.89 2.92L40.89 10.50L42.35 10.50L42.35 4.96L42.35 4.96Q42.35 3.94 43.75 3.94L43.75 3.94L43.75 3.94Q45.15 3.94 45.15 4.96L45.15 4.96L45.15 10.50L46.61 10.50L46.61 4.96L46.61 4.96Q46.61 3.94 48.01 3.94L48.01 3.94L48.01 3.94Q49.41 3.94 49.41 4.96L49.41 4.96L49.41 10.50L50.87 10.50L50.87 4.67L50.87 4.67Q50.87 2.77 48.87 2.77L48.87 2.77L48.87 2.77Q46.88 2.77 46.46 3.70L46.46 3.70L46.46 3.70Q46.14 2.77 44.25 2.77L44.25 2.77L44.25 2.77Q42.35 2.77 42.35 3.94L42.35 3.94L42.35 2.92L40.89 2.92ZM52.03 4.67L52.03 4.67L52.03 8.75L52.03 8.75Q52.03 10.65 55.24 10.65L55.24 10.65L55.24 10.65Q58.45 10.65 58.45 8.75L58.45 8.75L58.45 7.88L56.99 7.88L56.99 8.46L56.99 8.46Q56.99 9.48 55.24 9.48L55.24 9.48L55.24 9.48Q53.49 9.48 53.49 8.46L53.49 8.46L53.49 7.29L58.45 7.29L58.45 4.67L58.45 4.67Q58.45 2.77 55.24 2.77L55.24 2.77L55.24 2.77Q52.03 2.77 52.03 4.67ZM56.99 6.13L53.49 6.13L53.49 4.96L53.49 4.96Q53.49 3.94 55.24 3.94L55.24 3.94L55.24 3.94Q56.99 3.94 56.99 4.96L56.99 4.96L56.99 6.13ZM59.62 2.92L59.62 10.50L61.08 10.50L61.08 4.96L61.08 4.96Q61.08 3.94 62.36 3.94L62.36 3.94L62.36 3.94Q63.64 3.94 63.64 4.96L63.64 4.96L63.64 5.54L65.10 5.54L65.10 4.67L65.10 4.67Q65.10 2.77 63.09 2.77L63.09 2.77L63.09 2.77Q61.08 2.77 61.08 3.94L61.08 3.94L61.08 2.92L59.62 2.92ZM72.68 8.75L72.68 7.58L71.22 7.58L71.22 8.46L71.22 8.46Q71.22 9.48 69.47 9.48L69.47 9.48L69.47 9.48Q67.72 9.48 67.72 8.46L67.72 8.46L67.72 4.96L67.72 4.96Q67.72 3.94 69.47 3.94L69.47 3.94L69.47 3.94Q71.22 3.94 71.22 4.96L71.22 4.96L71.22 5.83L72.68 5.83L72.68 4.67L72.68 4.67Q72.68 2.77 69.47 2.77L69.47 2.77L69.47 2.77Q66.27 2.77 66.27 4.67L66.27 4.67L66.27 8.75L66.27 8.75Q66.27 10.65 69.47 10.65L69.47 10.65L69.47 10.65Q72.68 10.65 72.68 8.75L72.68 8.75ZM73.85 4.67L73.85 4.67L73.85 8.75L73.85 8.75Q73.85 10.65 77.06 10.65L77.06 10.65L77.06 10.65Q80.27 10.65 80.27 8.75L80.27 8.75L80.27 7.88L78.81 7.88L78.81 8.46L78.81 8.46Q78.81 9.48 77.06 9.48L77.06 9.48L77.06 9.48Q75.31 9.48 75.31 8.46L75.31 8.46L75.31 7.29L80.27 7.29L80.27 4.67L80.27 4.67Q80.27 2.77 77.06 2.77L77.06 2.77L77.06 2.77Q73.85 2.77 73.85 4.67ZM78.81 6.13L75.31 6.13L75.31 4.96L75.31 4.96Q75.31 3.94 77.06 3.94L77.06 3.94L77.06 3.94Q78.81 3.94 78.81 4.96L78.81 4.96L78.81 6.13Z"></path></g><!----><g data-v-423bf9ae="" id="71fc850f-624e-44d1-8dd5-e29fb4f61cda" transform="matrix(1.0241666158040366,0,0,1.0241666158040366,-7.747455031712896,-2.2743805768490972)" stroke="none" fill="#EF6C18"><path d="M87.4 24.4L51.6 3.7c-1.6-.9-3.6-.9-5.2 0L10.1 24.6h.4c-1.7.9-2.5 2.7-2.5 4.7v39.5c0 1.9.5 3.6 2.2 4.5l36.4 21.2c.8.5 1.6.7 2.5.7h.2c.9 0 1.8-.2 2.6-.7l36.6-21.2c1.6-.9 2.6-2.7 2.6-4.5V29.3c-.1-2.3-1.6-4.2-3.7-4.9zM49 14.2l25.8 14.9L49 44 23.2 29.1 49 14.2zM18 65.8V37.9L43 53v28L18 65.8zM53 81V52.9l28-15.1v28.1L53 81z"></path></g><!----></svg>